<?xml version="1.0" encoding="UTF-8"?>
<svg width="752pt" height="752pt" version="1.1" viewBox="0 0 752 752" xmlns="http://www.w3.org/2000/svg">
 <g>
  <path transform="matrix(4.7358 0 0 4.7358 139.21 139.21)" d="m75.23 5.5h-50c-4.6471 0-9.7297 3.1542-9.7297 7.8013v61.785c0 4.6463 5.0826 9.4138 9.7297 9.4138h6.2704v10.553l8.5527-8.4554 9.4468 8.4554v-10.553h25.73c4.6463 0 7.2701-4.7684 7.2701-9.4138v-61.785c0-4.6471-2.623-7.8013-7.2701-7.8013zm1.2702 7.8013v48.199h-50v-50h48.73c1.5499-8.25e-4 1.2694 0.25157 1.2694 1.8006zm-1.2702 65.199h-25.73v-5.9998h-18v5.9998h-6.2704c-1.549 0-3.7299-1.8649-3.7299-3.414l8.25e-4 -7.586h55v7.586c0 1.549 0.28044 3.414-1.2702 3.414zm0 0" stroke="#000" stroke-linecap="round" stroke-linejoin="round" stroke-miterlimit="10"/>
  <path d="m314.44 222.09c0-1.3008-1.0664-2.3672-2.3672-2.3672h-18.941c-1.3008 0-2.3672 1.0664-2.3672 2.3672v18.941c0 1.3008 1.0664 2.3672 2.3672 2.3672h18.941c1.3008 0 2.3672-1.0664 2.3672-2.3672z"/>
  <path d="m314.44 274.18c0-1.3008-1.0664-2.3672-2.3672-2.3672h-18.941c-1.3008 0-2.3672 1.0664-2.3672 2.3672v18.941c0 1.3008 1.0664 2.3672 2.3672 2.3672h18.941c1.3008 0 2.3672-1.0664 2.3672-2.3672z"/>
  <path d="m314.44 326.28c0-1.3008-1.0664-2.3672-2.3672-2.3672h-18.941c-1.3008 0-2.3672 1.0664-2.3672 2.3672v18.941c0 1.3008 1.0664 2.3672 2.3672 2.3672h18.941c1.3008 0 2.3672-1.0664 2.3672-2.3672z"/>
  <path d="m314.44 378.37c0-1.3008-1.0664-2.3672-2.3672-2.3672h-18.941c-1.3008 0-2.3672 1.0664-2.3672 2.3672v18.941c0 1.3008 1.0664 2.3672 2.3672 2.3672h18.941c1.3008 0 2.3672-1.0664 2.3672-2.3672z"/>
 </g>
</svg>
